<?xml version="1.0" standalone="no"?><!DOCTYPE svg PUBLIC "-//W3C//DTD SVG 1.1//EN" "http://www.w3.org/Graphics/SVG/1.1/DTD/svg11.dtd"><svg t="1718327864260" class="icon" viewBox="0 0 1158 1024" version="1.1" xmlns="http://www.w3.org/2000/svg" p-id="5872" width="54.28125" height="48" xmlns:xlink="http://www.w3.org/1999/xlink"><path d="M868.845442 412.798124a318.962816 318.962816 0 0 1 38.615353 2.509997v-120.672978a77.230706 77.230706 0 0 0-38.615353-66.997637L492.345751 10.426145a77.230706 77.230706 0 0 0-77.230706 0L38.615353 227.637506a77.230706 77.230706 0 0 0-38.615353 66.997637v434.615798a77.230706 77.230706 0 0 0 38.615353 66.997638L415.115045 1013.653016a77.230706 77.230706 0 0 0 77.230706 0l119.32144-68.928405A328.2305 328.2305 0 0 1 868.845442 412.798124z" fill="#367EE8" p-id="5873"></path><path d="M868.845442 451.413477A289.615147 289.615147 0 0 0 806.674724 1023.306854l32.82305-98.46915a30.892282 30.892282 0 0 1 57.92303 0l32.82305 98.46915A289.615147 289.615147 0 0 0 868.845442 451.413477z m0 386.153529a96.538382 96.538382 0 1 1 96.538383-96.538382 96.538382 96.538382 0 0 1-96.538383 96.538382z" fill="#367EE8" p-id="5874"></path></svg>